:version 1.10
:name ASF
:units
  mass 1
  length 1
  angle deg
:documentation
  ASF file generated by Kaydara
:root
  axis xyz
  order  tx ty tz rx ry rz
  position 0 0 0
  orientation 0 0 0
:bonedata
  begin
    id 1
    name RightUpLegDummy
    direction -0.65628 -0.754516 0.00165102
    length 4.76918
    axis 0 0 0 xyz
  end
  begin
    id 2
    name RightUpLeg
    direction -0.145584 -0.923362 0.355256
    length 17.9961
    axis -24.7611 -13.1006 1.78531 xyz
    dof rx ry rz
  end
  begin
    id 3
    name RightLeg
    direction 0.263379 0.172355 -0.949171
    length 13.3386
    axis 89.6202 -21.1929 12.3855 xyz
    dof rx ry rz
  end
  begin
    id 4
    name RightFoot
    direction 0.224283 -0.968777 -0.105675
    length 5.86697
    axis 56.995 -39.6905 17.3365 xyz
    dof rx ry rz
  end
  begin
    id 5
    name RightToes
    direction -0.0806345 -0.9037 0.420506
    length 4.75197
    axis 146.825 -39.7828 17.6019 xyz
    dof rx ry rz
  end
  begin
    id 6
    name SpineDummy
    direction -3.39852e-014 1 9.33296e-014
    length 8.13779
    axis 0 0 0 xyz
  end
  begin
    id 7
    name Spine
    direction -0.156609 0.733703 0.661176
    length 7.14978
    axis 41.2365 5.68757 17.0844 xyz
    dof rx ry rz
  end
  begin
    id 8
    name Spine1
    direction 0 0 0
    length 0
    axis 42.8809 47.8308 -3.36039 xyz
    dof rx ry rz
  end
  begin
    id 9
    name HEadDummy
    direction 0.546431 0.701947 0.456819
    length 3.55512
    axis 42.8809 47.8308 -3.36039 xyz
  end
  begin
    id 10
    name HEad
    direction 0.23444 0.828559 0.508457
    length 7.35827
    axis 51.1864 49.2662 27.4903 xyz
    dof rx ry rz
  end
  begin
    id 11
    name LeftShoulder1Dummy
    direction 0.431183 0.475873 -0.766568
    length 2.49352
    axis 42.8809 47.8308 -3.36039 xyz
  end
  begin
    id 12
    name LeftShoulder1
    direction 0.268187 -0.383402 -0.883786
    length 4.48604
    axis -119.517 0.106469 35.1736 xyz
    dof rx ry rz
  end
  begin
    id 13
    name LeftArm
    direction 0.380567 -0.703221 -0.600541
    length 10.1142
    axis -5.41825 36.2925 7.8293 xyz
    dof rx ry rz
  end
  begin
    id 14
    name LeftForeArm
    direction 0.541071 -0.732356 -0.413396
    length 9.39839
    axis 4.65387 33.7604 7.81644 xyz
    dof rx ry rz
  end
  begin
    id 15
    name LeftHand
    direction 0.847511 -0.389379 -0.360707
    length 3.66142
    axis 7.65593 21.1436 -24.6758 xyz
    dof rx ry rz
  end
  begin
    id 16
    name RightShoulderDummy
    direction -0.692546 0.541855 0.476208
    length 2.49352
    axis 42.8809 47.8308 -3.36039 xyz
  end
  begin
    id 17
    name RightShoulder
    direction -0.870808 -0.316653 0.376065
    length 4.48602
    axis 141.571 51.133 -100.254 xyz
    dof rx ry rz
  end
  begin
    id 18
    name RightArm
    direction 0.366897 -0.87275 0.322015
    length 10.1142
    axis 92.3258 71.2036 138.917 xyz
    dof rx ry rz
  end
  begin
    id 19
    name RightForeArm
    direction 0.702487 -0.694568 0.155197
    length 9.39835
    axis 153.863 41.5092 -176.604 xyz
    dof rx ry rz
  end
  begin
    id 20
    name RightHand
    direction 0.79502 -0.601276 0.0800636
    length 3.66142
    axis 154.247 4.59222 142.9 xyz
    dof rx ry rz
  end
  begin
    id 21
    name LeftUpLegDummy
    direction 0.65628 -0.754516 0.00165102
    length 4.76919
    axis 0 0 0 xyz
  end
  begin
    id 22
    name LeftUpLeg
    direction -0.1277 -0.689368 0.713067
    length 17.9961
    axis -48.3385 -17.8675 0.791927 xyz
    dof rx ry rz
  end
  begin
    id 23
    name LeftLeg
    direction 0.109849 -0.991246 -0.0732378
    length 13.3386
    axis -2.05791 -7.30784 1.72042 xyz
    dof rx ry rz
  end
  begin
    id 24
    name LeftFoot
    direction 0.0448355 -0.272614 0.961078
    length 5.86697
    axis -18.7733 -7.89606 10.2113 xyz
    dof rx ry rz
  end
  begin
    id 25
    name LeftToes
    direction -0.18506 0.293668 0.937823
    length 4.75197
    axis 71.2267 -7.89606 10.2113 xyz
    dof rx ry rz
  end
:hierarchy
  begin
    root RightUpLegDummy SpineDummy LeftUpLegDummy
    RightUpLegDummy RightUpLeg
    RightUpLeg RightLeg
    RightLeg RightFoot
    RightFoot RightToes
    SpineDummy Spine
    Spine Spine1
    Spine1 HEadDummy LeftShoulder1Dummy RightShoulderDummy
    HEadDummy HEad
    LeftShoulder1Dummy LeftShoulder1
    LeftShoulder1 LeftArm
    LeftArm LeftForeArm
    LeftForeArm LeftHand
    RightShoulderDummy RightShoulder
    RightShoulder RightArm
    RightArm RightForeArm
    RightForeArm RightHand
    LeftUpLegDummy LeftUpLeg
    LeftUpLeg LeftLeg
    LeftLeg LeftFoot
    LeftFoot LeftToes
  end

:SAMPLES-PER-SECOND 30
:FULLY-SPECIFIED
:DEGREES
228
root  -13.3449 35.8738 10.1251 174.825 15.3948 169.034
RightUpLeg  -1.43761 5.1797 12.4815
RightLeg  -69.9878 -25.6505 18.9036
RightFoot  4.41831 13.2713 -30.8389
RightToes  -1.27222e-014 -6.36111e-015 6.36111e-015
Spine  -22.3009 -32.6499 -21.2181
Spine1  -6.56851 -20.929 64.5781
HEad  -25.3538 9.79413 -16.9814
LeftShoulder1  6.36111e-015 -1.33558e-015 6.49777e-015
LeftArm  22.089 -28.7246 -49.1525
LeftForeArm  -45.4106 -50.1387 30.7306
LeftHand  -1.9069 -3.94065 -8.22326
RightShoulder  -4.77083e-015 -6.36111e-015 -3.18055e-015
RightArm  87.8927 -34.2233 -36.8753
RightForeArm  -45.8338 6.7286 -27.1186
RightHand  -0.831606 5.42253 -1.35614
LeftUpLeg  48.2768 -5.9161 26.0011
LeftLeg  8.61934 -3.02308 0.014641
LeftFoot  6.62871 5.72918 -15.8761
LeftToes  1.27222e-014 1.09105e-011 6.96064e-012
229
root  -13.6101 37.3377 10.9711 176.481 15.7875 169.234
RightUpLeg  -1.32113 5.65327 12.0137
RightLeg  -77.2329 -20.6357 16.5009
RightFoot  13.4777 14.7418 -32.4039
RightToes  -1.27222e-014 -6.36111e-015 6.36111e-015
Spine  -22.9777 -36.0128 -22.31
Spine1  -9.01552 -22.4559 68.6152
HEad  -21.8544 13.1408 -17.3229
LeftShoulder1  6.36111e-015 -1.33558e-015 6.49777e-015
LeftArm  26.7185 -30.0474 -53.5654
LeftForeArm  -43.1317 -49.0388 27.8561
LeftHand  -2.75412 -6.52666 -10.235
RightShoulder  -4.77083e-015 -6.36111e-015 -3.18055e-015
RightArm  89.8978 -32.8485 -36.7565
RightForeArm  -54.7695 10.3666 -35.7144
RightHand  -1.45511 7.61198 2.09904
LeftUpLeg  52.8579 -2.6377 22.6133
LeftLeg  12.1376 -4.32845 -0.216885
LeftFoot  6.46034 5.25321 -14.6359
LeftToes  1.27222e-014 1.09105e-011 6.96064e-012
230
root  -13.878 39.1291 11.9802 178.787 17.6477 169.618
RightUpLeg  -1.25355 6.63266 11.2961
RightLeg  -84.8237 -14.7459 8.03248
RightFoot  29.442 13.2733 -28.3915
RightToes  -1.27222e-014 -6.36111e-015 6.36111e-015
Spine  -24.6365 -37.6419 -22.5409
Spine1  -11.4034 -22.7604 70.8592
HEad  -18.2998 15.335 -17.0555
LeftShoulder1  6.36111e-015 -1.33558e-015 6.49777e-015
LeftArm  31.0808 -30.579 -58.6083
LeftForeArm  -39.9221 -46.3926 22.8732
LeftHand  -3.32516 -8.45909 -11.577
RightShoulder  -4.77083e-015 -6.36111e-015 -3.18055e-015
RightArm  90.0421 -33.1107 -35.7311
RightForeArm  -61.8807 11.2379 -41.1622
RightHand  -1.63208 8.17689 3.68054
LeftUpLeg  55.5716 3.42239 23.6523
LeftLeg  11.1871 -7.65938 -1.34425
LeftFoot  7.06321 6.2627 -17.138
LeftToes  1.27222e-014 1.09105e-011 6.96064e-012
231
root  -14.2381 40.7667 13.1262 -178.564 19.5482 170.423
RightUpLeg  -2.05087 7.20826 9.91238
RightLeg  -91.8598 -11.5474 -3.87084
RightFoot  46.3903 5.13978 -19.4409
RightToes  -1.27222e-014 -6.36111e-015 6.36111e-015
Spine  -27.8653 -37.7752 -20.8953
Spine1  -12.0494 -22.7624 71.4412
HEad  -15.1748 16.7578 -16.2656
LeftShoulder1  6.36111e-015 -1.33558e-015 6.49777e-015
LeftArm  34.4336 -30.4904 -62.6685
LeftForeArm  -39.1385 -43.1721 18.876
LeftHand  -3.52929 -9.17813 -11.5857
RightShoulder  -4.77083e-015 -6.36111e-015 -3.18055e-015
RightArm  88.7178 -34.6626 -33.9386
RightForeArm  -66.2032 11.9667 -46.1716
RightHand  -1.59821 7.75079 4.14855
LeftUpLeg  57.2411 9.44194 25.7888
LeftLeg  7.06119 -12.516 -2.43952
LeftFoot  8.11825 7.9107 -20.9837
LeftToes  1.27222e-014 1.09105e-011 6.96064e-012
232
root  -14.604 41.9233 14.2718 -176.141 20.402 171.168
RightUpLeg  -3.11371 11.2699 8.09067
RightLeg  -97.6643 -9.99371 -8.02632
RightFoot  54.0747 -2.82795 -13.4284
RightToes  -1.27222e-014 -6.36111e-015 6.36111e-015
Spine  -32.2411 -37.4817 -18.9146
Spine1  -10.6294 -23.0973 70.6914
HEad  -13.8148 17.6586 -15.9053
LeftShoulder1  6.36111e-015 -1.33558e-015 6.49777e-015
LeftArm  36.3054 -30.1598 -64.8399
LeftForeArm  -41.4006 -41.5619 17.8657
LeftHand  -3.6659 -9.63416 -10.9914
RightShoulder  -4.77083e-015 -6.36111e-015 -3.18055e-015
RightArm  85.8489 -36.6873 -31.4747
RightForeArm  -68.3583 12.951 -51.803
RightHand  -1.57431 7.34243 4.67961
LeftUpLeg  58.1329 14.1913 26.0973
LeftLeg  1.18646 -16.5436 -2.36499
LeftFoot  9.78747 9.08658 -23.044
LeftToes  1.27222e-014 1.09105e-011 6.96064e-012
233
root  -14.9498 42.6518 15.4139 -174.141 20.4309 172.233
RightUpLeg  -4.33304 13.2437 7.01053
RightLeg  -99.0699 -10.34 -6.65364
RightFoot  53.0299 -3.25114 -12.8654
RightToes  -1.27222e-014 -6.36111e-015 6.36111e-015
Spine  -36.0895 -36.5377 -16.9231
Spine1  -9.16779 -23.3043 69.162
HEad  -13.8769 18.42 -16.3161
LeftShoulder1  6.36111e-015 -1.33558e-015 6.49777e-015
LeftArm  36.6903 -29.1663 -65.2725
LeftForeArm  -45.7816 -42.0949 19.9778
LeftHand  -3.992 -10.7827 -11.3333
RightShoulder  -4.77083e-015 -6.36111e-015 -3.18055e-015
RightArm  81.8274 -38.8516 -28.2515
RightForeArm  -69.8079 13.4178 -55.9617
RightHand  -1.46996 6.54095 4.73328
LeftUpLeg  58.3662 17.4342 25.2578
LeftLeg  -5.47311 -17.8227 -1.29253
LeftFoot  12.503 9.94729 -23.5799
LeftToes  1.27222e-014 1.09105e-011 6.96064e-012
234
root  -15.3094 42.9028 16.6489 -172.84 20.0828 173.872
RightUpLeg  -5.08232 14.2775 6.81417
RightLeg  -96.8026 -11.239 -2.58991
RightFoot  49.4033 0.255909 -15.2554
RightToes  -1.27222e-014 -6.36111e-015 6.36111e-015
Spine  -37.4116 -34.7626 -15.2671
Spine1  -9.52415 -22.8786 67.3088
HEad  -13.9843 19.176 -17.013
LeftShoulder1  6.36111e-015 -1.33558e-015 6.49777e-015
LeftArm  36.243 -27.4783 -64.8251
LeftForeArm  -51.2577 -42.9286 23.1195
LeftHand  -4.26329 -11.8744 -12.6497
RightShoulder  -4.77083e-015 -6.36111e-015 -3.18055e-015
RightArm  77.1106 -40.7057 -24.0854
RightForeArm  -71.1351 13.2307 -57.487
RightHand  -0.902913 4.02539 2.23116
LeftUpLeg  58.4398 19.5395 25.3306
LeftLeg  -10.7309 -16.9471 -0.421351
LeftFoot  14.964 10.7479 -24.0296
LeftToes  1.27222e-014 1.09105e-011 6.96064e-012
235
root  -15.667 42.6955 18.0405 -172.269 19.2037 175.677
RightUpLeg  -5.00448 17.3213 6.64748
RightLeg  -92.2933 -11.8438 -0.427862
RightFoot  45.8775 1.95039 -16.2975
RightToes  -1.27222e-014 -6.36111e-015 6.36111e-015
Spine  -36.3418 -32.8698 -14.6557
Spine1  -10.7051 -21.9595 65.8838
HEad  -14.1494 19.5361 -17.7954
LeftShoulder1  6.36111e-015 -1.33558e-015 6.49777e-015
LeftArm  35.4482 -26.2251 -64.0241
LeftForeArm  -56.356 -42.7559 24.7101
LeftHand  -4.10773 -11.3698 -13.2303
RightShoulder  -4.77083e-015 -6.36111e-015 -3.18055e-015
RightArm  71.9649 -41.2357 -19.8057
RightForeArm  -71.9201 13.0323 -58.0006
RightHand  0.364893 0.233616 -3.13519
LeftUpLeg  58.0324 20.7306 25.9586
LeftLeg  -13.2735 -16.2693 -0.0905099
LeftFoot  15.5935 11.0777 -24.4009
LeftToes  1.27222e-014 1.09105e-011 6.96064e-012
236
root  -15.992 42.116 19.5615 -171.855 17.5807 177.03
RightUpLeg  -5.02993 21.11 6.2159
RightLeg  -85.8455 -12.2813 -1.21764
RightFoot  41.0874 4.01139 -17.747
RightToes  -1.27222e-014 -6.36111e-015 6.36111e-015
Spine  -34.7144 -31.358 -15.0068
Spine1  -11.073 -20.8725 65.2371
HEad  -14.9635 19.0196 -18.8091
LeftShoulder1  6.36111e-015 -1.33558e-015 6.49777e-015
LeftArm  33.8592 -25.7804 -62.4952
LeftForeArm  -60.001 -42.4906 25.5014
LeftHand  -3.57522 -9.35659 -12.12
RightShoulder  -4.77083e-015 -6.36111e-015 -3.18055e-015
RightArm  66.9665 -40.4448 -16.9784
RightForeArm  -71.6111 13.258 -58.6699
RightHand  1.63038 -2.55232 -7.71198
LeftUpLeg  56.1334 21.353 25.4187
LeftLeg  -13.8989 -16.6735 0.0641474
LeftFoot  14.7505 10.7668 -24.1868
LeftToes  1.27222e-014 1.09105e-011 6.96064e-012
237
root  -16.2794 41.1413 21.1527 -171.126 15.4167 177.931
RightUpLeg  -5.95389 23.5588 5.32798
RightLeg  -78.9288 -13.6109 1.12384
RightFoot  35.8366 8.31284 -22.1058
RightToes  -1.27222e-014 -6.36111e-015 6.36111e-015
Spine  -33.4165 -29.9084 -15.2618
Spine1  -11.2287 -19.8906 63.9541
HEad  -15.6455 17.5336 -19.5704
LeftShoulder1  6.36111e-015 -1.33558e-015 6.49777e-015
LeftArm  31.1042 -24.9837 -59.8063
LeftForeArm  -62.4277 -43.2908 28.2012
LeftHand  -3.07046 -7.57133 -11.1874
RightShoulder  -4.77083e-015 -6.36111e-015 -3.18055e-015
RightArm  62.5406 -39.8473 -15.8061
RightForeArm  -70.0254 13.8787 -58.7119
RightHand  1.66255 -2.42908 -8.1121
LeftUpLeg  52.7347 22.0658 24.1917
LeftLeg  -13.1418 -16.0007 -0.124699
LeftFoot  12.9576 9.90784 -23.2404
LeftToes  1.27222e-014 1.09105e-011 6.96064e-012
238
root  -16.5295 39.7524 22.7876 -170.585 12.8288 178.837
RightUpLeg  -6.58661 23.8621 3.89039
RightLeg  -73.4064 -16.8469 6.53254
RightFoot  31.8652 9.71463 -23.6957
RightToes  -1.27222e-014 -6.36111e-015 6.36111e-015
Spine  -31.7381 -27.9463 -14.6732
Spine1  -11.9217 -19.0966 60.8322
HEad  -15.5783 15.0565 -19.279
LeftShoulder1  6.36111e-015 -1.33558e-015 6.49777e-015
LeftArm  27.7979 -24.1339 -56.5557
LeftForeArm  -63.9593 -44.5869 32.0122
LeftHand  -3.06744 -7.53232 -12.1642
RightShoulder  -4.77083e-015 -6.36111e-015 -3.18055e-015
RightArm  58.7576 -39.8441 -15.4436
RightForeArm  -68.3795 14.2286 -57.2328
RightHand  0.753858 -0.0836166 -5.60609
LeftUpLeg  48.9607 22.7065 23.2868
LeftLeg  -9.99823 -11.8579 -0.823522
LeftFoot  7.55143 7.94421 -21.3798
LeftToes  1.27222e-014 1.09105e-011 6.96064e-012
239
root  -16.7208 38.1151 24.4387 -171.17 10.0221 179.279
RightUpLeg  -5.50328 23.9517 1.73061
RightLeg  -68.8542 -19.1863 8.5946
RightFoot  25.4209 5.3362 -17.3968
RightToes  -1.27222e-014 -6.36111e-015 6.36111e-015
Spine  -29.0928 -25.6623 -14.4674
Spine1  -11.6535 -18.0714 57.0222
HEad  -16.4205 11.0852 -17.9319
LeftShoulder1  6.36111e-015 -1.33558e-015 6.49777e-015
LeftArm  24.4874 -26.2567 -54.1211
LeftForeArm  -62.6484 -44.9086 32.0421
LeftHand  -3.40886 -8.77868 -13.5986
RightShoulder  -4.77083e-015 -6.36111e-015 -3.18055e-015
RightArm  55.5876 -38.7921 -15.9943
RightForeArm  -68.4072 13.5469 -54.294
RightHand  0.036483 1.87904 -3.16726
LeftUpLeg  45.8837 22.4574 21.2925
LeftLeg  -4.84728 -5.75619 -0.998903
LeftFoot  -4.26486 4.91755 -18.9779
LeftToes  1.27222e-014 1.09105e-011 6.96064e-012
240
root  -16.796 36.4605 26.0368 -172.795 7.91525 177.924
RightUpLeg  -4.86402 25.1433 -1.75744
RightLeg  -63.1675 -18.7143 5.6142
RightFoot  12.6547 0.279384 -6.45189
RightToes  -1.27222e-014 -6.36111e-015 6.36111e-015
Spine  -26.3684 -23.8776 -16.3438
Spine1  -8.52846 -16.4445 53.0004
HEad  -19.9592 5.24613 -16.043
LeftShoulder1  6.36111e-015 -1.33558e-015 6.49777e-015
LeftArm  21.566 -32.4344 -53.342
LeftForeArm  -56.8264 -43.7985 26.8528
LeftHand  -3.67474 -9.80344 -14.0429
RightShoulder  -4.77083e-015 -6.36111e-015 -3.18055e-015
RightArm  52.4089 -36.0844 -17.5591
RightForeArm  -68.3709 12.5023 -50.0909
RightHand  -0.264389 2.61953 -1.75158
LeftUpLeg  43.1829 21.9407 17.1395
LeftLeg  1.29564 -2.08911 -0.298438
LeftFoot  -19.0868 2.14514 -16.8905
LeftToes  1.27222e-014 1.09105e-011 6.96064e-012
